<?xml version="1.0" encoding="UTF-8"?>
<svg width="1024px" height="580px" viewBox="0 0 1024 580" version="1.1" xmlns="http://www.w3.org/2000/svg" xmlns:xlink="http://www.w3.org/1999/xlink">
    <!-- Generator: Sketch 43.1 (39012) - http://www.bohemiancoding.com/sketch -->
    <title>layer 1</title>
    <desc>Created with Sketch.</desc>
    <defs>
        <linearGradient x1="49.5571362%" y1="117.520407%" x2="50.4047288%" y2="2.07020835%" id="linearGradient-1">
            <stop stop-color="#5983AC" offset="0%"></stop>
            <stop stop-color="#5C83AB" offset="19.86%"></stop>
            <stop stop-color="#6684A9" offset="35.46%"></stop>
            <stop stop-color="#7784A5" offset="49.61%"></stop>
            <stop stop-color="#8E869F" offset="62.89%"></stop>
            <stop stop-color="#AC8797" offset="75.58%"></stop>
            <stop stop-color="#D2898E" offset="87.78%"></stop>
            <stop stop-color="#FD8B84" offset="99.46%"></stop>
            <stop stop-color="#FF8B83" offset="100%"></stop>
        </linearGradient>
    </defs>
    <g id="Page-1" stroke="none" stroke-width="1" fill="none" fill-rule="evenodd">
        <g id="Desktop" stroke="#000000">
            <g id="m1" transform="translate(-7.000000, 0.000000)">
                <g id="floor" transform="translate(0.806527, 393.066542)" fill-rule="nonzero" fill="url(#linearGradient-1)">
                    <polyline id="Shape" points="0.466979021 16.5459222 54.7518788 14.2165792 109.283576 5.95088217 166.13565 17.630689 603.465133 0.364817407 1033.5641 9.75483004 1033.5641 196.533271 0 196.533271"></polyline>
                </g>
                <g id="layer-1" transform="translate(0.806527, 292.176773)" stroke-width="0.25">
                    <polygon id="Shape" fill="#E28085" fill-rule="nonzero" points="0.403263403 113.863387 70.6380373 105.900359 86.2983683 120.664164 0.403263403 121.471283"></polygon>
                    <polygon id="Shape" fill="#70738E" fill-rule="nonzero" points="86.2983683 120.664164 83.0722611 109.498492 70.6380373 105.900359"></polygon>
                    <polygon id="Shape" fill="#F08688" fill-rule="nonzero" points="83.0722611 109.498492 111.032126 102.503199 86.2983683 120.664164"></polygon>
                    <polygon id="Shape" fill="#CD7C85" fill-rule="nonzero" points="86.2983683 120.664164 133.480186 126.716744 133.480186 111.382306 111.032126 102.503199"></polygon>
                    <polygon id="Shape" fill="#82697F" fill-rule="nonzero" points="133.480186 111.382306 149.207459 108.421796 133.480186 126.716744"></polygon>
                    <polygon id="Shape" fill="#B8747F" fill-rule="nonzero" points="111.032126 102.503199 149.207459 108.421796 133.480186 111.382306"></polygon>
                    <polygon id="Shape" fill="#AA778C" fill-rule="nonzero" points="133.480186 126.716744 166.413096 120.664164 149.207459 108.421796"></polygon>
                    <polygon id="Shape" fill="#FF8A88" fill-rule="nonzero" points="166.413096 120.664164 212.654503 97.6604899 193.835007 126.716744"></polygon>
                    <polygon id="Shape" fill="#FF8B83" fill-rule="nonzero" points="212.654503 97.6604899 237.387455 66.4516521 271.799534 58.9188183 251.36779 78.2896541"></polygon>
                    <polygon id="Shape" fill="#FD8C88" fill-rule="nonzero" points="237.387455 66.4516521 316.427082 35.2436214 302.044289 47.6191641 271.799534 58.9188183"></polygon>
                    <polygon id="Shape" fill="#BC7887" fill-rule="nonzero" points="251.36779 78.2896541 283.090909 70.2184725 302.044289 47.6191641 271.799534 58.9188183"></polygon>
                    <polygon id="Shape" fill="#F28586" fill-rule="nonzero" points="193.835007 126.716744 233.6242 105.4968 212.654503 97.6604899"></polygon>
                    <polygon id="Shape" fill="#E98180" fill-rule="nonzero" points="233.6242 105.4968 251.36779 78.2896541 212.654503 97.6604899"></polygon>
                    <polygon id="Shape" fill="#CF7B85" fill-rule="nonzero" points="193.835007 126.716744 247.60373 120.664164 233.6242 105.4968"></polygon>
                    <polygon id="Shape" fill="#CE7C87" fill-rule="nonzero" points="233.6242 105.4968 264.272219 94.4320172 247.60373 120.664164"></polygon>
                    <polygon id="Shape" fill="#C77A86" fill-rule="nonzero" points="233.6242 105.4968 251.36779 78.2896541 283.090909 70.2184725 264.272219 94.4320172"></polygon>
                    <polygon id="Shape" fill="#0E6A8F" fill-rule="nonzero" points="149.207459 108.421796 172.634643 117.569673 166.413096 120.664164"></polygon>
                    <polygon id="Shape" fill="#D57981" fill-rule="nonzero" points="242.226615 128.735346 247.60373 120.664164 271.464019 108.086035"></polygon>
                    <polygon id="Shape" fill="#A17488" fill-rule="nonzero" points="242.226615 128.735346 271.39627 132.0978 271.39627 108.153833"></polygon>
                    <polygon id="Shape" fill="#AA768B" fill-rule="nonzero" points="271.39627 108.153833 320.191142 91.8936306 271.39627 132.0978"></polygon>
                    <polygon id="Shape" fill="#EC807D" fill-rule="nonzero" points="247.60373 120.664164 308.361814 62.9544091 264.272219 94.4320172"></polygon>
                    <polygon id="Shape" fill="#E07D82" fill-rule="nonzero" points="302.044289 47.6199713 301.237762 66.1836889 264.272219 94.4320172 283.090909 70.2184725"></polygon>
                    <polygon id="Shape" fill="#B47483" fill-rule="nonzero" points="308.361814 62.9544091 320.191142 66.4516521 279.369594 105.4968 271.39627 108.153833 247.60373 120.664164"></polygon>
                    <polygon id="Shape" fill="#C37E8B" fill-rule="nonzero" points="316.427082 35.2436214 343.311846 30.4009125 302.044289 47.6199713"></polygon>
                    <polygon id="Shape" fill="#C57D8B" fill-rule="nonzero" points="301.237762 66.1836889 308.361814 62.9544091 335.515152 43.5843805 343.311846 30.4009125 302.044289 47.6199713"></polygon>
                    <polygon id="Shape" fill="#0D6E94" fill-rule="nonzero" points="308.361814 62.9544091 320.191142 66.4516521 337.531469 64.7034342 335.515152 43.5843805"></polygon>
                    <polygon id="Shape" fill="#737493" fill-rule="nonzero" points="320.191142 91.8936306 332.289044 91.8096903 345.596737 108.421796 285.926657 120.125817"></polygon>
                    <polygon id="Shape" fill="#A97A90" fill-rule="nonzero" points="271.39627 132.0978 285.926657 120.125817 345.596737 108.421796 297.608392 128.869328"></polygon>
                    <polygon id="Shape" fill="#8C7995" fill-rule="nonzero" points="345.596737 108.421796 419.797203 107.548494 297.608392 128.869328"></polygon>
                    <polygon id="Shape" fill="#0D698E" fill-rule="nonzero" points="279.369594 105.4968 320.191142 91.8936306 327.449883 91.8096903 320.191142 66.4516521"></polygon>
                    <polygon id="Shape" fill="#A27C96" fill-rule="nonzero" points="419.797203 107.548494 450.041958 99.2755333 409.715618 119.043471 297.608392 128.869328"></polygon>
                    <polygon id="Shape" fill="#666984" fill-rule="nonzero" points="409.715618 119.049928 358.702797 134.822631 431.895105 118.24281"></polygon>
                    <polygon id="Shape" fill="#9C7B97" fill-rule="nonzero" points="358.702797 134.822631 419.797203 136.806528 431.895105 118.24281"></polygon>
                    <polygon id="Shape" fill="#70799C" fill-rule="nonzero" points="419.797203 136.806528 484.319347 132.0978 486.738928 124.699755 431.895105 118.24281"></polygon>
                    <polygon id="Shape" fill="#8E7B9A" fill-rule="nonzero" points="484.319347 132.0978 531.097902 124.296196 486.738928 124.699755"></polygon>
                    <polygon id="Shape" fill="#117096" fill-rule="nonzero" points="431.895105 118.24281 492.384615 114.07243 486.738928 124.699755"></polygon>
                    <polygon id="Shape" fill="#156C94" fill-rule="nonzero" points="486.738928 124.699755 531.097902 124.296196 492.384615 114.07243"></polygon>
                    <polygon id="Shape" fill="#127FAA" fill-rule="nonzero" points="450.041958 99.2755333 445.22296 117.323502 431.895105 118.24281 409.715618 119.049928"></polygon>
                    <polygon id="Shape" fill="#127FAA" fill-rule="nonzero" points="450.041958 99.2755333 484.319347 114.627728 445.22296 117.323502"></polygon>
                    <polygon id="Shape" fill="#0F749C" fill-rule="nonzero" points="332.289044 91.8096903 392.821301 107.909276 345.596737 108.421796"></polygon>
                    <polygon id="Shape" fill="#107CA7" fill-rule="nonzero" points="320.191142 66.4516521 354.468531 86.1251572 348.954308 96.1963775 332.289044 91.8096903 327.449883 91.8096903"></polygon>
                    <polygon id="Shape" fill="#11789F" fill-rule="nonzero" points="337.531469 64.7034342 354.468531 85.9233776 320.191142 66.4516521"></polygon>
                    <polygon id="Shape" fill="#0F739B" fill-rule="nonzero" points="354.2669 86.0242674 425.475152 106.119088 419.797203 107.548494 392.778555 107.866499 348.904303 96.1455291"></polygon>
                    <polygon id="Shape" fill="#107BA5" fill-rule="nonzero" points="343.311846 30.4009125 400.440559 41.163026 413.748252 66.1836889"></polygon>
                    <polygon id="Shape" fill="#0F759F" fill-rule="nonzero" points="335.515152 43.5843805 429.878788 81.1403954 413.748252 66.1836889 343.311846 30.4009125"></polygon>
                    <polygon id="Shape" fill="#0F7AA5" fill-rule="nonzero" points="337.531469 64.7034342 429.878788 81.1403954 335.515152 43.5843805"></polygon>
                    <polygon id="Shape" fill="#10678B" fill-rule="nonzero" points="463.931963 105.4968 560.939394 107.548494 478.44138 111.995715"></polygon>
                    <polygon id="Shape" fill="#107CA8" fill-rule="nonzero" points="337.531469 64.7034342 435.121212 91.8096903 354.2669 86.0242674"></polygon>
                    <polygon id="Shape" fill="#116C91" fill-rule="nonzero" points="435.121212 91.8096903 477.867133 105.96735 463.931963 105.4968 450.041958 99.2755333 425.475152 106.119088 354.2669 86.0242674"></polygon>
                    <polygon id="Shape" fill="#0F769E" fill-rule="nonzero" points="435.121212 91.8096903 459.72028 91.8936306 429.878788 81.1403954 337.531469 64.7034342"></polygon>
                    <polygon id="Shape" fill="#0D759E" fill-rule="nonzero" points="459.72028 91.8936306 499.649002 106.252263 477.867133 105.96735 435.121212 91.8096903"></polygon>
                    <polygon id="Shape" fill="#0F779F" fill-rule="nonzero" points="413.748252 66.1836889 508.918415 96.0712742 519.403263 106.669543 499.649002 106.252263 459.72028 91.8936306 429.878788 81.1403954"></polygon>
                    <polygon id="Shape" fill="#107CA8" fill-rule="nonzero" points="400.440559 41.163026 463.325455 81.7473483 413.748252 66.1836889"></polygon>
                    <polygon id="Shape" fill="#107DA9" fill-rule="nonzero" points="400.440559 41.163026 462.13986 62.9544091 490.368298 68.2014843 508.918415 96.0712742 463.325455 81.7473483"></polygon>
                    <polygon id="Shape" fill="#0D739E" fill-rule="nonzero" points="400.440559 41.163026 435.121212 39.0104419 490.368298 68.2014843 462.13986 62.9544091"></polygon>
                    <polygon id="Shape" points="435.121212 39.0104419 450.041958 19.1012583 477.867133 41.163026"></polygon>
                    <polygon id="Shape" fill="#107BA5" fill-rule="nonzero" points="435.121212 39.0104419 490.368298 68.2014843 517.79021 70.2184725 477.867133 41.163026"></polygon>
                    <polygon id="Shape" fill="#0A6A8D" fill-rule="nonzero" points="435.121212 39.0104419 416.067016 30.4009125 389.013688 39.0104419 400.440559 41.163026"></polygon>
                    <polygon id="Shape" fill="#E68790" fill-rule="nonzero" points="416.067016 30.4009125 413.748252 19.1012583 382.69697 37.8199426 389.013688 39.0104419"></polygon>
                    <polygon id="Shape" fill="#877795" fill-rule="nonzero" points="450.041958 19.1012583 416.067016 30.4009125 435.121212 39.0104419"></polygon>
                    <polygon id="Shape" fill="#757392" fill-rule="nonzero" points="413.748252 19.1012583 440.766093 22.1860639 416.067016 30.4009125"></polygon>
                    <polygon id="Shape" fill="#0E6C92" fill-rule="nonzero" points="450.041958 19.1012583 492.384615 24.7510854 477.867133 41.163026"></polygon>
                    <polygon id="Shape" fill="#0F759F" fill-rule="nonzero" points="492.384615 24.7510854 519.403263 54.6144572 477.867133 41.163026"></polygon>
                    <polygon id="Shape" fill="#137DA7" fill-rule="nonzero" points="477.867133 41.163026 519.403263 54.6144572 554.084723 75.3138095 517.79021 70.2184725"></polygon>
                    <polygon id="Shape" fill="#107BA7" fill-rule="nonzero" points="490.368298 68.2014843 531.097902 106.917328 517.79021 70.2184725"></polygon>
                    <polygon id="Shape" fill="#0D739B" fill-rule="nonzero" points="490.368298 68.2014843 508.918415 96.0712742 519.403263 106.669543 531.097902 106.917328"></polygon>
                    <polygon id="Shape" fill="#C98291" fill-rule="nonzero" points="560.939394 107.548494 642.398601 78.2565623 556.90676 103.311124"></polygon>
                    <polygon id="Shape" fill="#136387" fill-rule="nonzero" points="560.939394 107.548494 531.097902 106.917328 556.90676 103.311124"></polygon>
                    <polygon id="Shape" fill="#127EA9" fill-rule="nonzero" points="517.79021 70.2184725 554.084723 75.3138095 571.512154 99.0309765 556.90676 103.311124 531.097902 106.917328"></polygon>
                    <polygon id="Shape" fill="#A7809B" fill-rule="nonzero" points="560.939394 107.548494 626.268065 127.524669 642.398601 78.2565623"></polygon>
                    <polygon id="Shape" fill="#9F7F9B" fill-rule="nonzero" points="531.097902 124.296196 492.384615 114.07243 560.939394 107.548494"></polygon>
                    <polygon id="Shape" fill="#12739A" fill-rule="nonzero" points="492.384615 114.07243 484.319347 114.627728 478.44138 111.995715 560.939394 107.548494"></polygon>
                    <polygon id="Shape" fill="#937C98" fill-rule="nonzero" points="531.097902 124.296196 626.268065 127.524669 650.463869 141.649237 419.797203 136.806528 484.319347 132.0978"></polygon>
                    <polygon id="Shape" fill="#827E9F" fill-rule="nonzero" points="632.808191 107.548494 669.820513 111.995715 678.289044 132.0978 675.4662 139.631441 650.463869 141.649237 626.268065 127.524669"></polygon>
                    <polygon id="Shape" fill="#777DA1" fill-rule="nonzero" points="632.808191 107.548494 657.319347 91.8096903 669.820513 111.995715"></polygon>
                    <polygon id="Shape" fill="#B97D9C" fill-rule="nonzero" points="632.808191 107.548494 642.398601 78.2565623 657.319347 91.8096903"></polygon>
                    <polygon id="Shape" fill="#CB7E8B" fill-rule="nonzero" points="642.398601 78.2565623 656.109557 68.6179572 657.319347 91.8096903"></polygon>
                    <polygon id="Shape" fill="#A07F9C" fill-rule="nonzero" points="657.319347 91.8096903 710.146853 58.2384177 656.109557 68.6179572"></polygon>
                    <polygon id="Shape" fill="#937E9D" fill-rule="nonzero" points="657.319347 91.8096903 669.820513 111.995715 689.58042 75.3138095"></polygon>
                    <polygon id="Shape" fill="#9B809E" fill-rule="nonzero" points="689.58042 75.3138095 710.146853 58.2384177 657.319347 91.8096903"></polygon>
                    <polygon id="Shape" fill="#447BA4" fill-rule="nonzero" points="678.289044 132.0978 724.261072 124.699755 669.820513 111.995715"></polygon>
                    <polygon id="Shape" fill="#717CA1" fill-rule="nonzero" points="675.400872 139.631441 752.48951 140.842118 724.261072 124.699755 678.289044 132.0978"></polygon>
                    <polygon id="Shape" fill="#127BA5" fill-rule="nonzero" points="669.820513 111.995715 721.438228 99.2755333 724.261072 124.699755"></polygon>
                    <polygon id="Shape" fill="#1383B1" fill-rule="nonzero" points="721.438228 99.2755333 771.44289 101.902703 710.146853 58.2384177 689.58042 75.3138095 669.820513 111.995715"></polygon>
                    <polygon id="Shape" fill="#527A9F" fill-rule="nonzero" points="724.261072 124.699755 811.769231 140.842118 752.48951 140.842118"></polygon>
                    <polygon id="Shape" fill="#1180AB" fill-rule="nonzero" points="710.146853 58.2384177 731.11655 39.6827713 771.44289 101.902703"></polygon>
                    <polygon id="Shape" fill="#1283AF" fill-rule="nonzero" points="731.11655 39.6827713 819.834499 85.1170666 771.44289 101.902703"></polygon>
                    <polygon id="Shape" fill="#1180AC" fill-rule="nonzero" points="771.44289 101.902703 792.412587 119.385689 724.261072 124.699755 721.438228 99.2755333"></polygon>
                    <polygon id="Shape" fill="#107AA4" fill-rule="nonzero" points="792.412587 119.385689 811.164336 140.640339 724.261072 124.699755"></polygon>
                    <polygon id="Shape" fill="#CB8496" fill-rule="nonzero" points="731.11655 39.6827713 686.354312 52.0591211 675.062937 64.9189347 710.146853 58.2384177"></polygon>
                    <polygon id="Shape" fill="#CA8697" fill-rule="nonzero" points="686.354312 52.0591211 667.862266 66.3241274 675.062937 64.9189347"></polygon>
                    <polygon id="Shape" fill="#1384B1" fill-rule="nonzero" points="731.11655 39.6827713 756.925408 35.5131989 794.832168 41.163026 800.691585 75.3138095"></polygon>
                    <polygon id="Shape" fill="#127DA9" fill-rule="nonzero" points="824.67366 107.548494 819.834499 85.1170666 771.44289 101.902703"></polygon>
                    <polygon id="Shape" fill="#1180AC" fill-rule="nonzero" points="824.67366 107.548494 792.412587 119.385689 771.44289 101.902703"></polygon>
                    <polygon id="Shape" fill="#127DA9" fill-rule="nonzero" points="800.691585 75.3138095 831.529138 60.9374208 819.834499 85.1170666"></polygon>
                    <polygon id="Shape" fill="#127DA8" fill-rule="nonzero" points="816.110765 55.4135042 831.529138 60.9374208 800.691585 75.3138095"></polygon>
                    <polygon id="Shape" fill="#176A8F" fill-rule="nonzero" points="816.110765 55.4135042 835.561772 35.5131989 841.610723 37.5309943 831.529138 60.9374208"></polygon>
                    <polygon id="Shape" fill="#B6859C" fill-rule="nonzero" points="835.561772 35.5131989 841.610723 37.5309943 847.25641 23.8099856"></polygon>
                    <polyline id="Shape" fill="#127EAA" fill-rule="nonzero" points="795.751608 46.5174479 794.832168 41.163026 829.382163 41.839391 816.110765 55.4135042 800.691585 75.3138095 795.751608 46.5174479"></polyline>
                    <polygon id="Shape" fill="#16688D" fill-rule="nonzero" points="819.834499 85.1170666 868.629371 39.6827713 831.529138 60.9374208"></polygon>
                    <polygon id="Shape" fill="#1280AB" fill-rule="nonzero" points="890.808858 87.1687609 819.834499 85.1170666 868.629371 39.6827713"></polygon>
                    <polygon id="Shape" fill="#147AA3" fill-rule="nonzero" points="841.610723 37.5309943 865.341161 41.5665851 831.529138 60.9374208"></polygon>
                    <polygon id="Shape" fill="#7C84A9" fill-rule="nonzero" points="847.25641 23.8099856 865.341161 41.5665851 841.610723 37.5309943"></polygon>
                    <polygon id="Shape" fill="#1184B1" fill-rule="nonzero" points="868.629371 39.6827713 916.617716 37.5309943 898.470862 65.0795512 890.808858 87.1687609"></polygon>
                    <polygon id="Shape" fill="#137DA7" fill-rule="nonzero" points="824.67366 107.548494 961.039599 127.524669 890.808858 87.1687609 819.834499 85.1170666"></polygon>
                    <polygon id="Shape" fill="#9487AA" fill-rule="nonzero" points="898.470862 65.0795512 951.298368 35.5131989 916.617716 37.5309943"></polygon>
                    <polygon id="Shape" fill="#7E80A2" fill-rule="nonzero" points="951.298368 35.5131989 958.153846 23.8099856 916.617716 37.5309943"></polygon>
                    <polygon id="Shape" fill="#1281AE" fill-rule="nonzero" points="951.298368 35.5131989 1013.8042 32.6882854 990.011655 48.2253099"></polygon>
                    <polygon id="Shape" fill="#507DA6" fill-rule="nonzero" points="951.298368 35.5131989 1013.8042 32.6882854 958.153846 23.8099856"></polygon>
                    <polygon id="Shape" fill="#137EA8" fill-rule="nonzero" points="960.97669 127.524669 960.97669 89.5901154 890.808858 87.1687609"></polygon>
                    <polygon id="Shape" fill="#147EAB" fill-rule="nonzero" points="961.783217 89.5901154 990.011655 48.2253099 898.470862 65.0795512 890.808858 87.1687609"></polygon>
                    <polygon id="Shape" fill="#4F80AA" fill-rule="nonzero" points="990.011655 48.2253099 951.298368 35.5131989 898.470862 65.0795512"></polygon>
                    <polygon id="Shape" fill="#1281AE" fill-rule="nonzero" points="847.25641 23.8099856 890.808858 27.0384583 883.159758 39.0306198 868.629371 39.6827713 865.341161 41.5665851"></polygon>
                    <polygon id="Shape" fill="#127FAA" fill-rule="nonzero" points="890.808858 27.0384583 958.153846 23.8099856 916.617716 37.5309943 883.159758 39.0306198"></polygon>
                    <polygon id="Shape" fill="#1280AB" fill-rule="nonzero" points="1013.8042 32.6882854 1035.02553 33.4954035 1034.87471 43.5843805 990.011655 48.2253099"></polygon>
                    <polygon id="Shape" fill="#1385B2" fill-rule="nonzero" points="961.783217 89.5901154 1034.24481 78.6940203 1034.87471 43.5843805 990.011655 48.2253099"></polygon>
                    <polygon id="Shape" fill="#1281AE" fill-rule="nonzero" points="960.97669 127.524669 1008.96503 107.548494 1034.24481 78.6940203 960.97669 89.5901154"></polygon>
                    <polygon id="Shape" fill="#1180AB" fill-rule="nonzero" points="1009.3683 107.548494 994.447552 140.035 1034.11899 134.385173"></polygon>
                    <polygon id="Shape" fill="#1384B0" fill-rule="nonzero" points="1009.3683 107.548494 1034.24481 78.6940203 1034.11899 134.385173"></polygon>
                    <polygon id="Shape" fill="#127DA7" fill-rule="nonzero" points="994.447552 140.035 960.97669 127.524669 1009.3683 107.548494"></polygon>
                    <polygon id="Shape" fill="#1379A3" fill-rule="nonzero" points="811.365967 140.842118 994.447552 140.035 960.97669 127.524669 824.67366 107.548494 792.412587 119.385689"></polygon>
                    <polygon id="Shape" fill="#9881A9" fill-rule="nonzero" points="731.11655 39.6827713 745.432401 30.67049 756.925408 35.5131989"></polygon>
                    <polygon id="Shape" fill="#1282AE" fill-rule="nonzero" points="745.432401 30.67049 771.44289 24.6171038 802.494172 24.6171038 794.832168 41.163026 756.925408 35.5131989"></polygon>
                    <polygon id="Shape" fill="#107CA7" fill-rule="nonzero" points="802.494172 24.6171038 829.382163 41.839391 794.832168 41.163026"></polygon>
                    <polygon id="Shape" fill="#147AA4" fill-rule="nonzero" points="802.494172 24.6171038 828.86034 11.7032133 855.321678 24.4072531 847.25641 23.8099856 829.382163 41.839391"></polygon>
                    <polygon id="Shape" fill="#CB88A2" fill-rule="nonzero" points="713.422965 44.5747145 752.086247 18.5637176 766.074648 25.8447305 745.432401 30.67049 731.11655 39.6827713"></polygon>
                    <polygon id="Shape" fill="#A6829E" fill-rule="nonzero" points="752.086247 18.5637176 787.97669 7.26406341 766.074648 25.8447305"></polygon>
                    <polygon id="Shape" fill="#9382A2" fill-rule="nonzero" points="752.086247 18.5637176 775.475524 3.22847263 787.97669 7.26406341"></polygon>
                    <polygon id="Shape" fill="#63779C" fill-rule="nonzero" points="775.475524 3.22847263 824.67366 0 787.97669 7.26406341"></polygon>
                    <polygon id="Shape" fill="#0F769F" fill-rule="nonzero" points="828.86034 11.7032133 865.341161 18.5637176 855.321678 24.4072531"></polygon>
                    <polygon id="Shape" fill="#127DA7" fill-rule="nonzero" points="865.341161 18.5637176 958.153846 23.8099856 890.808858 27.0384583 855.321678 24.4072531"></polygon>
                    <polygon id="Shape" fill="#127FAA" fill-rule="nonzero" points="824.472028 0 856.833916 7.26406341 868.982629 18.76469 865.316159 18.5637176 828.848242 11.7532546 802.494172 24.6171038 771.44289 24.6171038 766.074648 25.8447305 787.97669 7.26406341"></polygon>
                    <polygon id="Shape" fill="#0F7399" fill-rule="nonzero" points="856.833916 7.26406341 878.313338 19.2691389 868.982629 18.76469"></polygon>
                    <polygon id="Shape" fill="#126A8E" fill-rule="nonzero" points="994.447552 140.035 1034.144 147.299064 1034.11899 134.385173"></polygon>
                    <polygon id="Shape" fill="#F17F7D" fill-rule="nonzero" points="264.272219 94.4320172 301.237762 66.1836889 308.361814 62.9544091"></polygon>
                    <polygon id="Shape" fill="#0F759F" fill-rule="nonzero" points="450.041958 19.1012583 435.121212 39.0104419 477.867133 41.163026"></polygon>
                    <polygon id="Shape" fill="#18597E" fill-rule="nonzero" points="560.939394 107.548494 556.90676 103.311124 571.512154 99.0309765 586.431287 94.6580103 571.512154 103.746161"></polygon>
                    <polygon id="Shape" fill="#987E9C" fill-rule="nonzero" points="531.097902 124.296196 560.939394 107.548494 626.268065 127.524669"></polygon>
                </g>
            </g>
        </g>
    </g>
</svg>
