<?xml version="1.0" encoding="UTF-8"?>
<svg width="1024px" height="580px" viewBox="0 0 1024 580" version="1.1" xmlns="http://www.w3.org/2000/svg" xmlns:xlink="http://www.w3.org/1999/xlink">
    <!-- Generator: Sketch 43.1 (39012) - http://www.bohemiancoding.com/sketch -->
    <title>layer 2</title>
    <desc>Created with Sketch.</desc>
    <defs></defs>
    <g id="Page-1" stroke="none" stroke-width="1" fill="none" fill-rule="evenodd">
        <g id="Desktop" stroke-width="0.25" stroke="#000000" fill-rule="nonzero">
            <g id="m1" transform="translate(-7.000000, 0.000000)">
                <g id="layer-2" transform="translate(0.806527, 271.191701)">
                    <polygon id="Shape" fill="#FA8987" points="0.403263403 128.046067 104.771058 113.477584 97.0550163 128.046067 0.403263403 133.743514"></polygon>
                    <polygon id="Shape" fill="#FE938E" points="104.771058 113.400101 137.01358 97.2577379 153.643357 97.2577379 137.408779 112.844804"></polygon>
                    <polygon id="Shape" fill="#F18687" points="97.0550163 128.046067 137.458783 112.895652 104.848485 113.400101"></polygon>
                    <polygon id="Shape" fill="#E27F84" points="0.403263403 133.743514 0.403263403 141.245677 97.0550163 128.046067"></polygon>
                    <polygon id="Shape" fill="#FF958B" points="137.01358 97.2577379 171.337748 89.7563818 153.643357 97.2577379"></polygon>
                    <polygon id="Shape" fill="#0D5677" points="137.458783 112.794762 154.449883 128.046067 153.643357 97.2577379"></polygon>
                    <polygon id="Shape" fill="#095472" points="171.374042 89.791895 193.29786 97.2294888 184.156685 89.1865563"></polygon>
                    <polygon id="Shape" fill="#085677" points="171.3071 89.7563818 193.364802 97.2294888 201.363128 85.1509656 220.988345 85.9580837 241.151515 104.92536 245.452723 120.521305 198.689492 123.399488"></polygon>
                    <polygon id="Shape" fill="#82677D" points="201.363128 85.1509656 184.156685 89.1865563 193.364802 97.2294888"></polygon>
                    <polygon id="Shape" fill="#B87382" points="97.0550163 128.046067 120.172494 134.645872 137.559599 112.794762"></polygon>
                    <polygon id="Shape" fill="#085C7E" points="154.449883 128.046067 198.689492 123.382538 171.337748 89.7563818 153.643357 97.2577379"></polygon>
                    <polygon id="Shape" fill="#85687F" points="120.172494 134.645872 154.449883 128.046067 137.559599 112.794762"></polygon>
                    <polygon id="Shape" fill="#BF7580" points="120.172494 134.645872 97.0550163 128.046067 1.20979021 141.245677 1.61305361 141.245677"></polygon>
                    <polygon id="Shape" fill="#085878" points="220.988345 85.9580837 263.196312 93.0566879 279.326848 115.955437 245.452723 120.319525 241.151515 104.521801"></polygon>
                    <polygon id="Shape" fill="#0A5B7A" points="220.988345 85.9580837 270.18648 82.5948223 263.196312 93.0566879"></polygon>
                    <polygon id="Shape" fill="#B67482" points="270.18648 82.5948223 327.718457 112.450123 279.326848 115.955437 263.196312 93.0566879"></polygon>
                    <polygon id="Shape" fill="#E18891" points="489.561772 50.309289 514.295529 28.2483284 472.894089 46.5432756"></polygon>
                    <polygon id="Shape" fill="#EF8D92" points="500.853147 23.4056194 472.894089 46.5432756 460.526807 43.8523437"></polygon>
                    <polyline id="Shape" fill="#747397" points="485.080709 41.1581833 472.894089 46.5432756 500.853147 23.4056194 517.818438 15.3344379 514.295529 28.2483284 485.080709 41.1581833"></polyline>
                    <polygon id="Shape" fill="#0E78A3" points="489.561772 50.309289 511.069422 70.7568203 549.782709 44.3906915 514.295529 28.2483284"></polygon>
                    <polygon id="Shape" fill="#0D6F96" points="517.818438 15.3344379 534.727273 23.4056194 549.782709 44.3906915 514.295529 28.2483284"></polygon>
                    <polygon id="Shape" fill="#0C739B" points="517.818438 15.3344379 539.566434 6.72490848 555.69697 34.974044 534.727273 23.4056194"></polygon>
                    <polygon id="Shape" fill="#0D749D" points="549.782709 44.3906915 570.752406 39.2792122 555.69697 34.974044 534.727273 23.4056194"></polygon>
                    <polygon id="Shape" fill="#0D6E94" points="539.566434 6.72490848 568.063445 25.827781 570.752406 39.2792122 555.69697 34.974044"></polygon>
                    <polygon id="Shape" fill="#0D6C92" points="539.566434 6.72490848 560.536131 9.95338111 576.666667 6.72490848 622.907268 39.2792122 590.646196 28.2483284 557.655217 18.8502446"></polygon>
                    <polygon id="Shape" fill="#0B5D7F" points="568.063445 25.827781 595.367604 29.8625647 557.655217 18.8502446"></polygon>
                    <polygon id="Shape" fill="#0A6588" points="576.666667 6.72490848 640.113711 39.2792122 662.158508 64.8374158 622.907268 39.2792122"></polygon>
                    <polygon id="Shape" fill="#0E6C92" points="576.666667 6.72490848 603.013478 0.267963228 640.113711 39.2792122"></polygon>
                    <polygon id="Shape" fill="#0F749D" points="570.752406 39.2792122 595.367604 56.7662342 568.063445 25.827781"></polygon>
                    <polygon id="Shape" fill="#0C698F" points="594.81352 56.498271 608.390592 61.0705953 568.063445 25.827781"></polygon>
                    <polygon id="Shape" fill="#0D6F96" points="594.81352 56.498271 594.81352 71.0263978 570.752406 39.2792122"></polygon>
                    <polygon id="Shape" fill="#0F759F" points="608.390592 61.0705953 629.090909 60.9374208 595.367604 29.8625647 568.063445 25.827781"></polygon>
                    <polygon id="Shape" fill="#0A6084" points="629.090909 60.9374208 640.382284 60.9374208 595.367604 29.8625647"></polygon>
                    <polygon id="Shape" fill="#0C698E" points="595.367604 29.8625647 622.907268 39.2792122 662.158508 64.8374158 668.610723 76.6754178 640.382284 60.9374208"></polygon>
                    <polygon id="Shape" fill="#0B6F96" points="511.069422 70.7568203 555.69697 76.6754178 525.048951 85.1509656"></polygon>
                    <polygon id="Shape" fill="#0F749E" points="511.069422 70.7568203 532.039119 56.4756717 555.69697 76.6754178"></polygon>
                    <polygon id="Shape" fill="#0B6F96" points="532.039119 56.4756717 570.752406 77.9538929 555.69697 76.6754178"></polygon>
                    <polygon id="Shape" fill="#0E79A3" points="532.039119 56.4756717 549.782709 44.3906915 570.752406 77.9538929"></polygon>
                    <polygon id="Shape" fill="#0E77A2" points="570.752406 77.9538929 590.109049 87.8257551 581.715524 74.5228337 549.782709 44.3906915"></polygon>
                    <polygon id="Shape" fill="#0F7BA4" points="581.715524 74.5228337 594.81352 71.0263978 570.752406 39.2792122 549.782709 44.3906915"></polygon>
                    <polygon id="Shape" fill="#0F769F" points="570.752406 77.9538929 585.269888 102.735649 622.907268 82.5948223 594.81352 56.498271 594.81352 71.0263978 581.312261 74.5228337 589.907417 87.8257551"></polygon>
                    <polygon id="Shape" fill="#0C739B" points="594.81352 56.498271 608.390592 61.0705953 635.946387 71.0263978 642.19697 79.6173635 622.907268 82.5948223"></polygon>
                    <polygon id="Shape" fill="#0D6C91" points="608.390592 61.0705953 635.946387 71.0263978 629.090909 60.9374208"></polygon>
                    <polygon id="Shape" fill="#096E95" points="635.946387 71.0263978 659.099352 71.3726515 640.382284 60.9374208"></polygon>
                    <polygon id="Shape" fill="#0C6D93" points="635.946387 71.0263978 629.090909 60.9374208 640.382284 60.9374208"></polygon>
                    <polygon id="Shape" fill="#0E7198" points="642.19697 79.6173635 668.610723 76.6754178 659.099352 71.3726515 635.946387 71.0263978"></polygon>
                    <polygon id="Shape" fill="#0E78A3" points="535.753175 82.1904562 585.269888 102.735649 555.69697 76.6754178"></polygon>
                    <polygon id="Shape" fill="#0D749E" points="555.69697 76.6754178 570.752406 77.9538929 585.269888 102.735649"></polygon>
                    <polygon id="Shape" fill="#0A668B" points="525.048951 85.1509656 563.963869 99.6790924 535.753175 82.1904562"></polygon>
                    <polygon id="Shape" fill="#0F769F" points="585.269888 102.735649 593.60373 114.00544 563.963869 99.6790924 535.753175 82.1904562"></polygon>
                    <polygon id="Shape" fill="#0D6F97" points="544.50641 92.415029 579.892774 122.68196 568.835291 102.033456"></polygon>
                    <polygon id="Shape" fill="#117098" points="622.907268 82.5948223 615.783217 112.358112 593.60373 114.00544 585.269888 102.735649"></polygon>
                    <polygon id="Shape" fill="#0F79A4" points="579.892774 122.68196 563.963869 128.332594 544.50641 92.415029"></polygon>
                    <polygon id="Shape" fill="#107093" points="615.783217 112.358112 629.090909 98.0979479 622.907268 82.5948223"></polygon>
                    <polygon id="Shape" fill="#117198" points="629.090909 98.0979479 653.825473 89.7055333 634.736597 80.768314 622.907268 82.5948223"></polygon>
                    <polygon id="Shape" fill="#107198" points="634.736597 80.768314 642.19697 79.6173635 668.610723 76.6754178 653.825473 89.7055333"></polygon>
                    <polygon id="Shape" fill="#1D5A78" points="653.825473 89.7055333 647.523273 106.136038 633.123543 106.136038 629.090909 98.0979479"></polygon>
                    <polygon id="Shape" fill="#1B5574" points="615.783217 112.358112 633.123543 106.136038 629.090909 98.0979479"></polygon>
                    <polygon id="Shape" fill="#0E7197" points="668.610723 76.6754178 682.321678 84.3438474 647.523273 106.136038 653.825473 89.7055333"></polygon>
                    <polygon id="Shape" fill="#7A85A9" points="870.780378 5.11147929 848.197627 34.7060807 859.489002 38.4729012"></polygon>
                    <polygon id="Shape" fill="#6782A8" points="870.780378 5.11147929 894.977795 2.42135447 887.45048 11.2996542"></polygon>
                    <polygon id="Shape" fill="#B08BA2" points="887.45048 11.2996542 894.977795 2.42135447 909.763851 0.268770346"></polygon>
                    <polygon id="Shape" fill="#1283AF" points="862.462667 29.6858058 887.45048 11.2996542 870.780378 5.11147929"></polygon>
                    <polygon id="Shape" fill="#0B6A8E" points="909.763851 0.268770346 917.560545 21.7921902 933.422508 24.7518925"></polygon>
                    <polygon id="Shape" fill="#7D84AA" points="887.45048 11.2996542 906.000597 25.827781 909.763851 0.268770346"></polygon>
                    <polygon id="Shape" fill="#0B769F" points="906.000597 25.827781 917.560545 21.7921902 909.763851 0.268770346"></polygon>
                    <polygon id="Shape" fill="#127EA9" points="877.539879 18.5919667 904.92469 33.0918444 887.45048 11.2996542"></polygon>
                    <polygon id="Shape" fill="#157198" points="904.92469 33.0918444 887.45048 11.2996542 906.000597 25.827781 927.238867 38.4729012"></polygon>
                    <polygon id="Shape" fill="#127EA9" points="917.560545 21.7921902 940.681249 32.0151488 927.238867 38.4729012 906.000597 25.827781"></polygon>
                    <polygon id="Shape" fill="#0D698D" points="917.560545 21.7921902 933.422508 24.7518925 958.424839 33.0918444 940.681249 32.0151488"></polygon>
                    <polygon id="Shape" fill="#0C698C" points="958.424839 33.0918444 981.00759 38.4729012 971.329268 43.5843805 940.681249 32.0151488"></polygon>
                    <polygon id="Shape" fill="#507EA6" points="981.00759 38.4729012 1000.63281 60.1303027 979.93007 59.3231845"></polygon>
                    <polygon id="Shape" fill="#0B6C91" points="981.00759 38.4729012 971.329268 43.5843805 979.93007 59.3231845"></polygon>
                    <polygon id="Shape" fill="#127FAA" points="927.238867 38.4729012 957.348932 47.6199713 940.681249 32.0151488"></polygon>
                    <polygon id="Shape" fill="#147FAC" points="927.238867 38.4729012 937.455142 51.3859846 957.348932 47.6199713"></polygon>
                    <polygon id="Shape" fill="#507DA6" points="957.348932 47.6199713 940.681249 32.0151488 971.329268 43.5843805 979.93007 59.3231845"></polygon>
                    <polygon id="Shape" fill="#13729B" points="877.539879 18.5919667 911.780168 52.7314505 904.92469 33.0918444"></polygon>
                    <polygon id="Shape" fill="#1384B0" points="862.462667 29.6858058 877.539879 41.4317963 911.780168 52.7314505 877.539879 18.5919667"></polygon>
                    <polygon id="Shape" fill="#0B769F" points="859.489002 38.4729012 877.539879 41.4317963 862.462667 29.6858058"></polygon>
                    <polygon id="Shape" fill="#0F81AD" points="911.780168 52.7314505 937.455142 51.3859846 927.238867 38.4729012 904.92469 33.0918444"></polygon>
                    <polygon id="Shape" fill="#0A6485" points="987.538844 45.6691667 1009.3683 53.6733574 1000.63281 60.1303027"></polygon>
                    <polygon id="Shape" fill="#0D5270" points="137.714452 131.310053 153.643357 128.214755 198.689492 123.382538 225.758951 121.73521 205.398988 143.263473 165.337995 143.263473"></polygon>
                    <polygon id="Shape" fill="#AE7182" points="234.161347 75.0619886 265.347319 61.1722922 263.196312 74.825503"></polygon>
                    <polygon id="Shape" fill="#0D5475" points="265.347319 61.1722922 295.457385 69.5461431 283.090909 74.8602091 263.196312 74.825503"></polygon>
                    <polygon id="Shape" fill="#80637A" points="265.347319 61.1053014 294.785548 56.4756717 295.457385 69.5461431"></polygon>
                    <polygon id="Shape" fill="#C67782" points="294.785548 56.4756717 261.046112 58.1125073 234.161347 75.0619886 265.481203 61.1053014"></polygon>
                    <polygon id="Shape" fill="#0B4E72" points="294.785548 56.4756717 315.621361 65.5670506 295.457385 69.4121615"></polygon>
                    <polygon id="Shape" fill="#0B5677" points="234.161347 75.0619886 207.277389 85.3939081 220.988345 85.9580837 270.18648 82.5948223 283.090909 74.8602091 263.196312 74.825503"></polygon>
                    <polygon id="Shape" fill="#0F769F" points="579.892774 122.68196 593.60373 114.00544 568.835291 102.033456"></polygon>
                </g>
            </g>
        </g>
    </g>
</svg>
