<?xml version="1.0" encoding="UTF-8"?>
<svg width="1024px" height="580px" viewBox="0 0 1024 580" version="1.1" xmlns="http://www.w3.org/2000/svg" xmlns:xlink="http://www.w3.org/1999/xlink">
    <!-- Generator: Sketch 43.1 (39012) - http://www.bohemiancoding.com/sketch -->
    <title>layer 3</title>
    <desc>Created with Sketch.</desc>
    <defs></defs>
    <g id="Page-1" stroke="none" stroke-width="1" fill="none" fill-rule="evenodd">
        <g id="Desktop" stroke-width="0.25" stroke="#000000" fill-rule="nonzero">
            <g id="m1" transform="translate(-8.000000, 0.000000)">
                <g id="layer-3" transform="translate(1.806527, 245.363920)">
                    <polygon id="Shape" fill="#C37580" points="647.237762 35.5131989 664.174825 29.8633718 677.079254 32.6882854"></polygon>
                    <polygon id="Shape" fill="#B7727E" points="647.237762 35.5131989 635.13986 68.2014843 667.804196 60.1303027"></polygon>
                    <polygon id="Shape" fill="#EA8C94" points="677.079254 32.6882854 697.242424 9.2818588 664.174825 29.8633718"></polygon>
                    <polygon id="Shape" fill="#0E6A8F" points="667.804196 60.1303027 695.764061 95.7782903 702.484848 68.2014843 677.079254 32.6882854"></polygon>
                    <polygon id="Shape" fill="#0A668B" points="655.113497 63.2667638 685.144522 101.696888 695.764061 95.7782903 667.804196 60.1303027"></polygon>
                    <polygon id="Shape" fill="#074E6D" points="685.144522 101.696888 657.050774 75.6003364 655.113497 63.2667638"></polygon>
                    <polygon id="Shape" fill="#0E6587" points="657.050774 75.6003364 635.13986 68.2014843 655.113497 63.2667638"></polygon>
                    <polygon id="Shape" fill="#0B6387" points="635.13986 68.2014843 666.191949 95.7782903 685.144522 101.696888 657.050774 75.6003364"></polygon>
                    <polygon id="Shape" fill="#1B6D92" points="666.091133 95.8452811 658.882396 102.201337 667.804196 111.785865 689.58042 111.785865 685.144522 101.696888"></polygon>
                    <polygon id="Shape" fill="#1A4865" points="695.764061 95.7782903 728.025133 93.8952837 702.484848 68.2014843"></polygon>
                    <polygon id="Shape" fill="#937996" points="677.079254 32.6882854 681.409497 38.7416715 698.990168 40.0871375 697.242424 9.2818588"></polygon>
                    <polygon id="Shape" fill="#126789" points="698.990168 40.0871375 702.484848 68.2014843 681.409497 38.7416715"></polygon>
                    <polygon id="Shape" fill="#777391" points="647.237762 35.5131989 675.438779 37.5422939 677.079254 32.6882854"></polygon>
                    <polygon id="Shape" fill="#10678C" points="647.237762 35.5131989 667.804196 60.1303027 675.438779 37.5422939"></polygon>
                    <polygon id="Shape" fill="#1C5473" points="698.990168 40.0871375 707.324816 41.4317963 702.484848 68.2014843"></polygon>
                    <polygon id="Shape" fill="#F2919A" points="698.990168 40.0871375 697.242424 9.2818588 717.003138 5.91859744 707.324816 41.4317963"></polygon>
                    <polygon id="Shape" fill="#B97E90" points="717.003138 5.91859744 728.025133 13.1826609 737.972834 0.538347811"></polygon>
                    <polygon id="Shape" fill="#F8929B" points="717.002331 6.38995445 728.025133 13.4183394 737.972834 0.656187062 739.585888 38.8175406 732.864294 42.3737032 707.324009 41.4317963"></polygon>
                    <polygon id="Shape" fill="#D68B9C" points="737.972834 0.555297292 752.75889 5.91859744 739.585888 38.8175406"></polygon>
                    <polygon id="Shape" fill="#106182" points="737.972834 0.555297292 751.145837 0.538347811 770.771054 13.1826609 752.75889 5.91859744"></polygon>
                    <polygon id="Shape" fill="#1E5471" points="702.484848 68.2014843 707.324009 41.4317963 732.864294 42.3737032 731.11655 61.4749615 728.025133 94.2988427"></polygon>
                    <polygon id="Shape" fill="#7B7798" points="746.408298 21.7792763 770.771054 13.1826609 752.75889 5.91859744"></polygon>
                    <polygon id="Shape" fill="#DB8C9D" points="746.408298 21.7792763 762.73724 16.0180669 745.366266 41.5665851 739.585888 38.8175406"></polygon>
                    <polygon id="Shape" fill="#223A53" points="739.585888 38.8175406 728.025133 93.8952837 732.864294 42.3737032"></polygon>
                    <polygon id="Shape" fill="#214E6B" points="739.585888 38.8175406 745.366266 41.5665851 735.011268 80.9135952 728.025133 93.8952837"></polygon>
                    <polygon id="Shape" fill="#1B4057" points="735.011268 80.9135952 749.244853 58.3723993 751.352308 51.7556447 745.366266 41.5665851"></polygon>
                    <polygon id="Shape" fill="#FD9290" points="762.73724 16.0180669 770.771054 13.1826609 758.589273 46.0057349 749.244853 58.3723993"></polygon>
                    <polygon id="Shape" fill="#CF8BA1" points="770.771054 13.1826609 790.39627 4.30436113 758.589273 46.0057349"></polygon>
                    <polygon id="Shape" fill="#AF87A0" points="790.39627 4.30436113 810.559441 4.43914986 794.962825 9.2818588 775.67393 23.6751969"></polygon>
                    <polygon id="Shape" fill="#1A698A" points="749.244853 58.3723993 762.73724 61.8785206 735.011268 80.9135952"></polygon>
                    <polygon id="Shape" fill="#D58E9F" points="762.73724 61.8785206 794.962825 9.2818588 775.67393 23.6477549 749.244853 58.3723993"></polygon>
                    <polygon id="Shape" fill="#0A7091" points="794.962825 9.2818588 814.319469 8.07118157 825.341464 14.0575769 851.688275 24.6840946 837.439366 10.492536 810.559441 4.43914986"></polygon>
                    <polygon id="Shape" fill="#127EA9" points="851.688275 24.6840946 868.629371 57.7089482 837.977319 26.6348992"></polygon>
                    <polygon id="Shape" fill="#0F77A0" points="851.688275 24.6840946 837.977319 26.6348992 825.341464 14.0575769"></polygon>
                    <polygon id="Shape" fill="#BE8BA2" points="794.962825 9.2818588 814.319469 8.07118157 777.475711 37.8223639"></polygon>
                    <polygon id="Shape" fill="#9483A4" points="793.017483 24.6840946 825.341464 14.0575769 814.319469 8.07118157"></polygon>
                    <polygon id="Shape" fill="#5983AC" points="793.017483 24.6840946 812.172494 53.4715779 825.341464 14.0575769"></polygon>
                    <polygon id="Shape" fill="#AC8DAB" points="793.017483 24.6840946 785.82165 54.1447144 812.172494 53.4715779"></polygon>
                    <polygon id="Shape" fill="#DF91A3" points="793.017483 24.6840946 785.82165 54.1447144 762.73724 61.8785206 777.475711 37.8223639"></polygon>
                    <polygon id="Shape" fill="#A48BAC" points="812.172494 53.4715779 837.977319 26.6348992 825.341464 14.0575769"></polygon>
                    <polygon id="Shape" fill="#7588B0" points="812.172494 53.4715779 836.632839 61.8785206 837.977319 26.6348992"></polygon>
                    <polygon id="Shape" fill="#1282AE" points="836.632839 61.8785206 868.629371 57.7089482 837.977319 26.6348992"></polygon>
                    <polygon id="Shape" fill="#0A6E8E" points="851.688275 24.6840946 889.326462 53.4715779 874.271026 35.5801897 889.326462 39.3284464 837.439366 10.492536"></polygon>
                    <polygon id="Shape" fill="#0E6B8F" points="889.328075 39.3284464 928.040555 47.8249793 985.034578 69.0086024 971.058275 69.0086024"></polygon>
                    <polygon id="Shape" fill="#127EA9" points="889.328075 39.3284464 874.271026 35.5801897 889.326462 53.4715779 952.235552 71.294361 981.270517 76.7424086 971.058275 69.0086024"></polygon>
                    <polygon id="Shape" fill="#1283AF" points="868.629371 57.7089482 897.39173 63.7615273 889.326462 53.4715779 851.688275 24.6840946"></polygon>
                    <polygon id="Shape" fill="#107CA7" points="836.500569 62.4176755 879.110186 77.079784 917.827506 77.079784 952.235552 71.294361 889.326462 53.4715779 897.39173 63.862417 868.629371 57.7089482"></polygon>
                    <polygon id="Shape" fill="#0E6F98" points="971.058275 69.0086024 984.769231 69.0086024 1005.7357 83.5359221 981.270517 76.7424086"></polygon>
                    <polygon id="Shape" fill="#B76D77" points="22.5545221 141.783218 1.20979021 150.931095 1.20979021 160.616513 19.9615385 157.7916"></polygon>
                    <polygon id="Shape" fill="#966577" points="22.5545221 141.783218 44.7622378 151.199866 44.7622378 157.388041 19.9615385 157.7916"></polygon>
                    <polygon id="Shape" fill="#FE8A88" points="22.5545221 141.783218 1.20979021 145.281268 1.20979021 150.931095"></polygon>
                    <polygon id="Shape" fill="#D07778" points="22.5545221 141.783218 28.6317016 138.420764 77.2588159 150.358849 44.7622378 151.199866"></polygon>
                    <polygon id="Shape" fill="#FF8986" points="28.6317016 138.420764 1.61305361 141.783218 1.20979021 145.281268 22.5545221 141.783218"></polygon>
                    <polygon id="Shape" fill="#B96F7A" points="28.6317016 138.420764 25.3047786 126.313992 89.1212121 150.527536 77.4265734 150.527536"></polygon>
                    <polygon id="Shape" fill="#CE777E" points="28.6317016 138.387672 1.61305361 141.783218 1.12187879 130.033999 25.3047786 126.26395"></polygon>
                    <polygon id="Shape" fill="#FA8D87" points="25.002331 126.313992 0.403263403 127.12111 1.12187879 130.033999"></polygon>
                    <polygon id="Shape" fill="#AE6C77" points="25.3047786 126.313992 42.7459207 122.278401 103.638695 145.281268 89.1212121 150.527536"></polygon>
                    <polygon id="Shape" fill="#E98181" points="25.002331 126.313992 0.403263403 127.12111 12.486648 123.085519 42.7459207 122.278401"></polygon>
                    <polygon id="Shape" fill="#FF8A86" points="42.7459207 122.278401 40.0037296 117.516404 12.486648 123.085519"></polygon>
                    <polygon id="Shape" fill="#A9676E" points="42.7459207 122.278401 57.2133986 121.874842 103.638695 145.281268"></polygon>
                    <polygon id="Shape" fill="#DC7A7B" points="42.7459207 122.278401 39.9230769 117.435692 58.4522238 114.610778 57.2133986 121.874842"></polygon>
                    <polygon id="Shape" fill="#FB8783" points="58.4731935 114.610778 58.4731935 108.960951 67.4030583 114.610778 57.2133986 121.874842"></polygon>
                    <polygon id="Shape" fill="#08425C" points="67.3449883 114.610778 103.638695 145.281268 57.2133986 121.874842"></polygon>
                    <polygon id="Shape" fill="#8F6275" points="67.3449883 114.610778 82.2657343 109.36451 80.4260466 125.665069"></polygon>
                    <polygon id="Shape" fill="#014A65" points="82.2657343 109.36451 95.1701632 129.946023 113.317016 141.851016 103.638695 145.281268 80.4260466 125.665069"></polygon>
                    <polygon id="Shape" fill="#043F58" points="95.1701632 129.946023 118.290867 141.918007 113.317016 141.851016"></polygon>
                    <polygon id="Shape" fill="#074F6D" points="82.2657343 109.36451 93.5571096 110.171628 106.66317 112.525992 124.608392 141.649237 118.290867 141.918007 95.1701632 129.946023"></polygon>
                    <polygon id="Shape" fill="#F58784" points="0.403263403 127.12111 0.403263403 118.646369 12.486648 123.085519"></polygon>
                    <polygon id="Shape" fill="#FC8A84" points="0.403263403 118.646369 39.9230769 117.435692 12.486648 123.085519"></polygon>
                    <polygon id="Shape" fill="#DB7A7D" points="0.403263403 118.646369 0.403263403 105.328919 15.1223776 118.220211"></polygon>
                    <polygon id="Shape" fill="#FF938C" points="0.403263403 105.328919 15.3240093 105.328919 21.5745921 99.6790924 0.175822844 101.898667"></polygon>
                    <polygon id="Shape" fill="#F37F82" points="15.3240093 105.429809 40.7296037 101.898667 21.5745921 99.6790924"></polygon>
                    <polygon id="Shape" fill="#DA7A7B" points="15.3240093 105.328919 15.1223776 118.220211 0.403263403 105.328919"></polygon>
                    <polygon id="Shape" fill="#CC7379" points="15.3240093 105.328919 39.9230769 117.435692 15.1223776 118.220211"></polygon>
                    <polygon id="Shape" fill="#F58685" points="15.2231935 105.429809 39.9230769 101.898667 39.9230769 117.516404"></polygon>
                    <polygon id="Shape" fill="#FC8887" points="39.9230769 101.898667 58.4731935 104.118242 58.4731935 108.960951 58.4731935 114.610778 39.9230769 117.516404"></polygon>
                    <polygon id="Shape" fill="#FF8F8B" points="58.4731935 108.960951 74.8053613 100.620999 67.3449883 114.610778"></polygon>
                    <polygon id="Shape" fill="#EC8486" points="67.3449883 114.610778 82.2657343 109.36451 74.8053613 100.620999"></polygon>
                    <polygon id="Shape" fill="#FA8988" points="74.8053613 100.620999 91.4061026 95.6435016 82.2657343 109.36451"></polygon>
                    <polygon id="Shape" fill="#966470" points="82.2657343 109.36451 93.5571096 110.171628 91.2044709 95.5765108"></polygon>
                    <polygon id="Shape" fill="#FF958D" points="58.4731935 104.118242 68.1515152 100.620999 82.7907832 91.5877329 91.3052867 95.5765108 74.8053613 100.620999 58.4731935 108.960951"></polygon>
                    <polygon id="Shape" fill="#FF8D8A" points="91.1375291 95.6435016 106.461538 95.6435016 116.408434 96.0478678 115.06476 89.7927021 98.3962704 88.3463463 91.1375291 92.1971071 82.7907832 91.5877329"></polygon>
                    <polygon id="Shape" fill="#0B4863" points="91.1375291 95.6435016 106.66317 112.525992 93.5571096 110.171628"></polygon>
                    <polygon id="Shape" fill="#0D4D68" points="91.1375291 95.6435016 106.461538 95.6435016 106.66317 112.525992"></polygon>
                    <polygon id="Shape" fill="#04445F" points="106.461538 95.6435016 124.608392 141.649237 106.66317 112.525992"></polygon>
                    <polygon id="Shape" fill="#0A4D6B" points="106.461538 95.6435016 116.408434 96.0478678 124.608392 141.649237"></polygon>
                    <polygon id="Shape" fill="#04445F" points="124.608392 141.649237 136.034457 137.992184 116.408434 96.0478678"></polygon>
                    <polygon id="Shape" fill="#074F6D" points="116.408434 96.0478678 131.732443 99.2755333 144.906252 129.138905 136.034457 137.992184"></polygon>
                    <polygon id="Shape" fill="#AD646B" points="116.408434 96.0478678 115.06476 89.7927021 140.873618 94.9711722 131.732443 99.2755333"></polygon>
                    <polygon id="Shape" fill="#0C3D53" points="131.732443 99.2755333 151.62704 104.521801 140.873618 94.9711722"></polygon>
                    <polygon id="Shape" fill="#084D6A" points="131.732443 99.2755333 151.62704 104.521801 161.573935 125.665069 144.906252 129.138905"></polygon>
                    <polygon id="Shape" fill="#074764" points="140.873618 94.9711722 155.12172 96.0478678 169.370629 124.296196 161.573935 125.665069 151.62704 104.521801"></polygon>
                    <polygon id="Shape" fill="#013E52" points="155.12172 96.0478678 175.016317 121.874842 169.370629 124.296196"></polygon>
                    <polygon id="Shape" fill="#084D69" points="155.12172 96.0478678 167.219622 97.9308744 175.016317 121.874842"></polygon>
                    <polygon id="Shape" fill="#06425C" points="167.219622 97.9308744 178.780378 101.898667 159.154354 81.7885113"></polygon>
                    <polygon id="Shape" fill="#DC7D82" points="167.219622 97.9308744 155.12172 96.0478678 144.906252 91.4739292 159.154354 81.7885113"></polygon>
                    <polygon id="Shape" fill="#064968" points="159.154354 81.7885113 178.780378 93.0881655 175.016317 71.2959753 198.674168 118.220211 175.016317 121.874842 167.219622 97.9308744 178.780378 101.898667"></polygon>
                    <polygon id="Shape" fill="#A76A79" points="159.154354 81.7885113 175.016317 71.2959753 178.780378 93.0881655"></polygon>
                    <polygon id="Shape" fill="#FD8984" points="144.906252 91.4739292 131.840517 93.0881655 140.873618 94.9711722 155.12172 96.0478678"></polygon>
                    <polygon id="Shape" fill="#E77F84" points="144.906252 91.4739292 136.034457 83.671518 131.840517 93.0881655"></polygon>
                    <polygon id="Shape" fill="#FE9A91" points="131.899394 93.1470851 120.174914 90.8112852 136.034457 83.671518"></polygon>
                    <polygon id="Shape" fill="#FF908E" points="136.034457 83.671518 162.649841 68.0675026 175.016317 71.2959753 144.906252 91.4739292"></polygon>
                    <polygon id="Shape" fill="#0C4D6A" points="175.016317 71.2959753 194.456839 65.1917406 205.875646 80.0975988 229.86014 111.371006 198.674168 118.220211"></polygon>
                    <polygon id="Shape" fill="#FF867E" points="175.049385 71.2620763 194.440709 65.207883 200.825175 61.744539 186.307692 62.5516572 162.649841 68.0675026"></polygon>
                    <polygon id="Shape" fill="#A5656A" points="200.825175 61.744539 204.857809 69.681739 194.440709 65.207883"></polygon>
                    <polygon id="Shape" fill="#114460" points="194.440709 65.207883 204.857809 69.681739 229.86014 111.371006"></polygon>
                    <polygon id="Shape" fill="#074764" points="200.825175 61.744539 216.149184 68.8746208 217.224284 61.744539 237.656834 79.7707159 245.184149 101.898667 229.86014 111.371006 204.857809 69.681739"></polygon>
                    <polygon id="Shape" fill="#8C6273" points="200.825175 61.744539 216.955711 62.5516572 216.149184 68.8746208"></polygon>
                    <polygon id="Shape" fill="#BF6A6E" points="221.14965 65.207883 234.430727 71.2959753 227.790592 61.744539 218.430042 62.8083207"></polygon>
                    <polygon id="Shape" fill="#003443" points="234.430727 71.2959753 256.494881 83.3825697 227.790592 61.744539"></polygon>
                    <polygon id="Shape" fill="#0D4560" points="234.430727 71.2959753 221.14965 65.207883 237.656834 79.7707159 245.184149 101.898667 274.219114 96.5854085 256.494881 83.3825697"></polygon>
                    <polygon id="Shape" fill="#8C5B68" points="232.275688 65.1078004 248.81352 69.681739 248.81352 62.1480981 229.931114 63.3418258"></polygon>
                    <polygon id="Shape" fill="#0B3F59" points="248.81352 69.681739 268.992821 92.7394905 232.275688 65.1078004"></polygon>
                    <polygon id="Shape" fill="#023A52" points="248.81352 69.681739 268.992821 92.7394905 274.219114 96.5854085 290.081077 93.9630816 257.634503 66.5541561 248.81352 62.1480981"></polygon>
                    <polygon id="Shape" fill="#0D4661" points="257.634503 66.5541561 285.779063 79.7707159 290.081077 93.9630816"></polygon>
                    <polygon id="Shape" fill="#0F4059" points="257.63531 66.5541561 267.7669 67.3943661 294.650858 75.4655477 304.867133 76.2726658 319.383809 92.2471484 290.081077 93.9630816 285.779063 79.7707159"></polygon>
                    <polygon id="Shape" fill="#985D6C" points="267.7669 67.3943661 291.961897 69.681739 294.650858 75.4655477"></polygon>
                    <polygon id="Shape" fill="#FF8F8E" points="291.961897 69.681739 311.520172 66.7890275 319.350741 92.3480382 304.867133 76.2726658 294.650858 75.4655477"></polygon>
                    <polygon id="Shape" fill="#FF9897" points="311.520172 66.5872479 331.750284 56.2311149 319.350741 92.2471484"></polygon>
                    <polygon id="Shape" fill="#FFA89F" points="331.750284 56.2311149 343.31104 60.2667057 347.880821 51.655562 355.812205 52.8678535 343.04166 63.7639486 352.719981 62.1480981 319.350741 92.2471484"></polygon>
                    <polygon id="Shape" fill="#FF978E" points="331.750284 56.2311149 346.129851 54.9550611 343.31104 60.2667057"></polygon>
                    <polygon id="Shape" fill="#145071" points="355.812205 52.8678535 359.710956 53.6733574 366.431744 56.634674 377.991692 59.3917896 397.616909 68.1691995 364.54931 61.744539"></polygon>
                    <polygon id="Shape" fill="#C67D8C" points="352.719981 62.1480981 364.54931 61.744539 355.812205 52.8662393 343.04166 63.7639486"></polygon>
                    <polygon id="Shape" fill="#957693" points="352.719981 62.1480981 367.506844 68.0683098 346.129851 91.663602 319.350741 92.2471484"></polygon>
                    <polygon id="Shape" fill="#063E56" points="352.719981 62.1480981 367.506844 68.0683098 395.466709 74.6422871 397.616909 68.1691995 364.54931 61.744539"></polygon>
                    <polygon id="Shape" fill="#757392" points="367.506844 68.0675026 366.566434 85.5545246 346.129851 91.663602"></polygon>
                    <polygon id="Shape" fill="#135070" points="367.506844 68.0675026 367.506844 68.0675026 395.466709 74.6422871 389.014494 86.5577725"></polygon>
                    <polygon id="Shape" fill="#065270" points="367.506844 68.0683098 381.419431 93.0881655 389.014494 86.5577725"></polygon>
                    <polygon id="Shape" fill="#C5808E" points="366.566434 85.5545246 381.419431 93.0881655 367.506844 68.0683098"></polygon>
                    <polygon id="Shape" fill="#805059" points="397.617716 68.1691995 408.102564 69.0086024 389.014494 86.5577725 395.466709 74.6422871"></polygon>
                    <polygon id="Shape" fill="#146D93" points="408.102564 69.0086024 421.54414 79.7311671 389.014494 86.5577725"></polygon>
                    <polygon id="Shape" fill="#FE9093" points="745.366266 41.5665851 751.352308 51.7564518 762.73724 16.0180669"></polygon>
                </g>
            </g>
        </g>
    </g>
</svg>
