<?xml version="1.0" encoding="UTF-8"?>
<svg width="215px" height="49px" viewBox="0 0 215 49" version="1.1" xmlns="http://www.w3.org/2000/svg" xmlns:xlink="http://www.w3.org/1999/xlink">
    <!-- Generator: Sketch 43.1 (39012) - http://www.bohemiancoding.com/sketch -->
    <title>rmonik white</title>
    <desc>Created with Sketch.</desc>
    <defs></defs>
    <g id="Symbols" stroke="none" stroke-width="1" fill="none" fill-rule="evenodd">
        <g id="rmonik-white" stroke="#FFFFFF" stroke-width="1.8">
            <path d="M11,46 C11,46 11,34.3448276 11,28.9655172 C11,27.1724138 13.7692308,20 23,20" id="Path-4"></path>
            <path d="M36,46 C36,46 36,33.604106 36,27.7985698 C36,16.1670704 54,15.9676402 54,27.7985698 L54,46" id="Path-5"></path>
            <path d="M54,46 C54,46 54,33.604106 54,27.7985698 C54,16.1670704 72,15.9676402 72,27.7985698 L72,46" id="Path-5-Copy"></path>
            <path d="M131,46 C131,46 131,33.604106 131,27.7985698 C131,16.1670704 149,15.9676402 149,27.7985698 L149,46" id="Path-5-Copy-2"></path>
            <circle id="Oval-2" cx="101.5" cy="32.5" r="13.5"></circle>
            <path d="M169,19 L169,46" id="Path-6"></path>
            <circle id="Oval" cx="169" cy="9" r="1"></circle>
            <polyline id="Path-7" points="204 46 190 31.3480535 201.79862 19"></polyline>
            <polyline id="Path-8" points="189 45 189 30.6666667 189 2"></polyline>
        </g>
    </g>
</svg>